<svg width="500" height="500" viewBox="0 0 500 500" fill="none" xmlns="http://www.w3.org/2000/svg">
<rect width="500" height="500" rx="120" fill="#1A1A1A"/>
<path d="M360.098 108.128C354.708 108.128 349.372 109.176 344.399 111.251C339.415 113.326 334.902 116.363 331.084 120.192C327.277 124.031 324.261 128.576 322.197 133.592C320.144 138.608 319.085 143.976 319.096 149.398V411.882C319.096 414.909 322.112 416.984 324.871 415.775C351.307 404.225 374.022 385.403 390.363 361.405C407.881 335.684 417.26 305.227 417.26 274.031V112.438C417.26 110.064 415.346 108.128 412.982 108.128H360.098Z" fill="white"/>
<path d="M180.153 112.406C180.153 110.043 178.239 108.128 175.876 108.128H86.2671C83.9036 108.128 82 110.043 82 112.406V301.184C82 302.168 82.3315 303.12 82.9518 303.879L172.56 414.535C175.095 417.668 180.164 415.871 180.164 411.84V112.406H180.153Z" fill="white"/>
<path d="M298.714 149.398V217.918C298.714 219.714 297.591 221.329 295.901 221.939C294.383 222.484 292.864 223.051 291.346 223.628C276.844 229.254 263.166 236.782 250.707 246.012C232.066 259.797 216.335 277.346 204.528 297.238C203.416 299.11 200.561 298.329 200.561 296.147V112.438C200.561 110.053 202.475 108.128 204.838 108.128H257.722C263.102 108.118 268.438 109.187 273.422 111.251C278.395 113.326 282.918 116.363 286.726 120.203C290.533 124.031 293.559 128.587 295.613 133.592C297.677 138.608 298.725 143.976 298.714 149.398Z" fill="white"/>
<path d="M298.714 401.634V248.907C298.714 245.837 295.57 243.741 292.757 244.971C282.223 249.57 272.181 255.355 262.834 262.275C236.333 281.878 216.837 309.491 207.234 341.028C202.774 355.637 200.561 370.738 200.561 385.817V401.634C200.561 404.436 203.202 406.468 205.908 405.762C219.875 402.158 234.526 400.233 249.627 400.233C264.727 400.233 279.389 402.158 293.356 405.773C296.073 406.478 298.714 404.446 298.714 401.644V401.634Z" fill="url(#paint0_linear_1821_9052)"/>
<defs>
<linearGradient id="paint0_linear_1821_9052" x1="249.637" y1="259.697" x2="249.637" y2="401.88" gradientUnits="userSpaceOnUse">
<stop offset="0.28" stop-color="#2D6CFF"/>
<stop offset="0.97" stop-color="#6AB8FF"/>
</linearGradient>
</defs>
</svg>
