<svg width="336" height="309" viewBox="0 0 336 309" fill="none" xmlns="http://www.w3.org/2000/svg">
<g clip-path="url(#clip0_1821_8885)">
<path d="M278.098 0.128418C272.708 0.128418 267.372 1.17647 262.399 3.25119C257.415 5.32591 252.902 8.36313 249.084 12.1917C245.277 16.031 242.261 20.5762 240.197 25.5919C238.144 30.6075 237.085 35.9761 237.096 41.3982V303.882C237.096 306.909 240.112 308.984 242.871 307.775C269.307 296.225 292.022 277.403 308.363 253.405C325.881 227.684 335.26 197.227 335.26 166.031V4.43827C335.26 2.06411 333.346 0.128418 330.982 0.128418H278.098Z" fill="white"/>
<path d="M98.1534 4.40619C98.1534 2.04272 96.2391 0.128418 93.8757 0.128418H4.26707C1.9036 0.128418 0 2.04272 0 4.40619V193.184C0 194.168 0.331478 195.12 0.951755 195.879L90.5604 306.535C93.095 309.668 98.1641 307.871 98.1641 303.84V4.40619H98.1534Z" fill="white"/>
<path d="M216.714 41.3983V109.918C216.714 111.714 215.591 113.329 213.901 113.939C212.383 114.484 210.864 115.051 209.346 115.628C194.844 121.254 181.166 128.782 168.707 138.012C150.066 151.797 134.335 169.346 122.528 189.238C121.416 191.11 118.561 190.329 118.561 188.147V4.43835C118.561 2.0535 120.475 0.128497 122.838 0.128497H175.722C181.102 0.117803 186.438 1.18725 191.422 3.25127C196.395 5.32599 200.918 8.36321 204.726 12.2025C208.533 16.0311 211.559 20.5869 213.613 25.5919C215.677 30.6076 216.725 35.9762 216.714 41.3983Z" fill="white"/>
<path d="M216.714 293.634V140.907C216.714 137.837 213.57 135.741 210.757 136.971C200.223 141.57 190.181 147.355 180.834 154.275C154.333 173.878 134.837 201.491 125.234 233.028C120.774 247.637 118.561 262.738 118.561 277.817V293.634C118.561 296.436 121.202 298.468 123.908 297.762C137.875 294.158 152.526 292.233 167.627 292.233C182.727 292.233 197.389 294.158 211.356 297.773C214.073 298.478 216.714 296.446 216.714 293.644V293.634Z" fill="url(#paint0_linear_1821_8885)"/>
</g>
<defs>
<linearGradient id="paint0_linear_1821_8885" x1="167.637" y1="151.697" x2="167.637" y2="293.88" gradientUnits="userSpaceOnUse">
<stop offset="0.28" stop-color="#2D6CFF"/>
<stop offset="0.97" stop-color="#6AB8FF"/>
</linearGradient>
<clipPath id="clip0_1821_8885">
<rect width="335.261" height="308" fill="white" transform="translate(0 0.128418)"/>
</clipPath>
</defs>
</svg>
