<svg width="1863" height="244" viewBox="0 0 1863 244" fill="none" xmlns="http://www.w3.org/2000/svg">
<path d="M220.32 0C216.05 0 211.823 0.830277 207.884 2.47389C203.936 4.11749 200.361 6.5236 197.336 9.55665C194.321 12.5982 191.932 16.1989 190.297 20.1723C188.67 24.1458 187.831 28.3989 187.84 32.6943V240.636C187.84 243.034 190.229 244.677 192.415 243.72C213.356 234.57 231.35 219.659 244.294 200.647C258.17 180.272 265.6 156.143 265.6 131.429V3.4143C265.6 1.53347 264.083 0 262.211 0H220.32Z" fill="white"/>
<path d="M77.7515 3.38888C77.7515 1.51653 76.2351 0 74.3629 0H3.38013C1.50792 0 0 1.51653 0 3.38888V152.94C0 153.72 0.262578 154.474 0.753925 155.075L71.7368 242.737C73.7445 245.22 77.76 243.796 77.76 240.602V3.38888H77.7515Z" fill="white"/>
<path d="M171.68 32.6943V86.9758C171.68 88.3991 170.79 89.6784 169.452 90.1613C168.249 90.5934 167.045 91.0424 165.842 91.4999C154.354 95.9563 143.518 101.921 133.647 109.232C118.88 120.153 106.417 134.056 97.0632 149.814C96.182 151.297 93.9199 150.678 93.9199 148.95V3.41436C93.9199 1.52506 95.4365 6.29207e-05 97.3089 6.29207e-05H139.205C143.467 -0.00840929 147.694 0.838812 151.643 2.47395C155.582 4.11756 159.166 6.52367 162.182 9.56519C165.198 12.5982 167.596 16.2074 169.223 20.1724C170.858 24.1459 171.688 28.3989 171.68 32.6943Z" fill="white"/>
<path d="M171.68 111.05C171.68 108.618 169.189 106.958 166.961 107.932C158.615 111.575 150.66 116.159 143.255 121.64C122.26 137.17 106.815 159.045 99.2067 184.03C95.6737 195.603 93.9199 207.565 93.9199 219.511V232.042C93.9199 234.261 96.0126 235.871 98.1561 235.312C109.221 232.457 120.828 230.932 132.791 230.932C144.755 230.932 156.37 232.457 167.435 235.32C169.587 235.88 171.68 234.27 171.68 232.05V111.05Z" fill="url(#paint0_linear_1821_9056)"/>
<path d="M572.844 226.96H525.754L494.266 91.0793H493.698L462.21 226.96H413.702L359.52 17.0398H413.985L442.069 153.488H442.637L473.557 17.0398H514.69L545.044 154.055H545.611L574.262 17.0398H628.444L572.844 226.96Z" fill="white"/>
<path d="M768.99 226.96H652.4V17.0398H768.99V64.1301H703.745V96.7528H767.005V143.843H703.745V179.87H768.99V226.96Z" fill="white"/>
<path d="M919.43 226.96H803.69V17.0398H857.305V179.87H919.43V226.96Z" fill="white"/>
<path d="M1057.67 226.96H941.927V17.0398H995.541V179.87H1057.67V226.96Z" fill="white"/>
<path d="M1151.08 226.96H1075.91V17.0398H1147.39C1173.49 17.0398 1194.2 21.5786 1208.95 29.8052C1238.74 46.8258 1257.46 79.1649 1257.46 122C1257.46 191.217 1216.61 226.96 1151.08 226.96ZM1129.52 179.87H1153.64C1184.56 179.87 1203.85 160.58 1203.85 122.284C1203.85 84.8384 1184.84 64.1301 1153.92 64.1301H1129.52V179.87Z" fill="white"/>
<path d="M1393.39 230.932C1334.96 230.932 1280.21 188.948 1280.21 126.822C1280.21 61.8606 1327.01 13.0684 1390.84 13.0684C1452.12 13.0684 1501.76 60.4423 1501.76 120.582C1501.76 182.707 1453.53 230.932 1393.39 230.932ZM1391.69 183.841C1424.88 183.841 1448.14 155.757 1448.14 122.284C1448.14 89.3772 1424.6 60.1586 1390.84 60.1586C1357.37 60.1586 1333.82 88.2425 1333.82 121.433C1333.82 156.041 1357.37 183.841 1391.69 183.841Z" fill="white"/>
<path d="M1707.59 226.96H1661.07L1580.5 98.7385L1581.92 226.96H1530.58V17.0398H1576.82L1658.51 149.8L1656.25 17.0398H1707.59V226.96Z" fill="white"/>
<path d="M1862.42 226.96H1745.83V17.0398H1862.42V64.1301H1797.17V96.7528H1860.43V143.843H1797.17V179.87H1862.42V226.96Z" fill="white"/>
<defs>
<linearGradient id="paint0_linear_1821_9056" x1="132.8" y1="119.598" x2="132.8" y2="232.237" gradientUnits="userSpaceOnUse">
<stop offset="0.28" stop-color="#2D6CFF"/>
<stop offset="0.97" stop-color="#6AB8FF"/>
</linearGradient>
</defs>
</svg>
