<svg width="656" height="912" viewBox="0 0 656 912" fill="none" xmlns="http://www.w3.org/2000/svg">
<path d="M538.399 0C528.109 0 517.921 2.00083 508.427 5.96166C498.913 9.92249 490.297 15.7208 483.008 23.03C475.74 30.3596 469.983 39.0366 466.042 48.612C462.122 58.1874 460.101 68.4366 460.121 78.7878V579.894C460.121 585.672 465.879 589.633 471.146 587.326C521.616 565.276 564.981 529.342 596.178 483.527C629.62 434.425 647.526 376.279 647.526 316.723V8.22791C647.526 3.69541 643.871 0 639.359 0H538.399Z" fill="white"/>
<path d="M194.879 8.16666C194.873 8.16666 194.868 8.16203 194.868 8.15638C194.863 3.64903 191.21 0 186.702 0H15.6306C11.1185 0 7.48438 3.65458 7.48438 8.16666V368.561C7.48438 370.44 8.1172 372.257 9.30136 373.706L180.373 584.957C185.211 590.939 194.889 587.509 194.889 579.812V8.17685C194.889 8.1712 194.884 8.16666 194.879 8.16666V8.16666Z" fill="white"/>
<path d="M421.212 78.788V209.597C421.212 213.027 419.068 216.11 415.842 217.274C412.943 218.315 410.044 219.397 407.145 220.5C379.46 231.239 353.347 245.612 329.562 263.232C293.976 289.549 263.943 323.053 241.403 361.028C239.279 364.601 233.828 363.11 233.828 358.945V8.22806C233.828 3.67515 237.483 0.000151629 241.995 0.000151629H342.955C353.225 -0.020265 363.413 2.0214 372.927 5.96181C382.42 9.92264 391.057 15.721 398.325 23.0505C405.593 30.3597 411.371 39.0572 415.291 48.6122C419.232 58.1876 421.232 68.4367 421.212 78.788Z" fill="white"/>
<path d="M421.212 560.329V268.759C421.212 262.899 415.21 258.897 409.84 261.245C389.73 270.024 370.558 281.07 352.714 294.279C302.122 331.703 264.902 384.419 246.568 444.628C238.054 472.517 233.828 501.345 233.828 530.132V560.329C233.828 565.678 238.871 569.557 244.036 568.209C270.701 561.329 298.671 557.654 327.5 557.654C356.328 557.654 384.319 561.329 410.983 568.23C416.169 569.577 421.212 565.698 421.212 560.349V560.329Z" fill="url(#paint0_linear_1821_9121)"/>
<path d="M92.9995 759.647H72.4704L58.743 700.409H58.4957L44.7684 759.647H23.6209L0 668.131H23.7446L35.9878 727.616H36.2352L49.7151 668.131H67.6472L80.8799 727.864H81.1272L93.6179 668.131H117.239L92.9995 759.647Z" fill="white"/>
<path d="M178.51 759.647H127.682V668.131H178.51V688.66H150.066V702.882H177.645V723.412H150.066V739.118H178.51V759.647Z" fill="white"/>
<path d="M244.095 759.647H193.638V668.131H217.011V739.118H244.095V759.647Z" fill="white"/>
<path d="M304.359 759.647H253.902V668.131H277.276V739.118H304.359V759.647Z" fill="white"/>
<path d="M345.084 759.647H312.312V668.131H343.477C354.854 668.131 363.882 670.11 370.313 673.696C383.298 681.117 391.46 695.215 391.46 713.889C391.46 744.064 373.652 759.647 345.084 759.647ZM335.685 739.118H346.197C359.677 739.118 368.087 730.708 368.087 714.013C368.087 697.688 359.801 688.66 346.321 688.66H335.685V739.118Z" fill="white"/>
<path d="M450.721 761.378C425.245 761.378 401.377 743.075 401.377 715.991C401.377 687.671 421.783 666.4 449.608 666.4C476.321 666.4 497.963 687.053 497.963 713.271C497.963 740.354 476.939 761.378 450.721 761.378ZM449.979 740.849C464.449 740.849 474.59 728.606 474.59 714.013C474.59 699.667 464.325 686.929 449.608 686.929C435.015 686.929 424.751 699.172 424.751 713.642C424.751 728.729 435.015 740.849 449.979 740.849Z" fill="white"/>
<path d="M587.696 759.647H567.414L532.292 703.748L532.91 759.647H510.526V668.131H530.684L566.301 726.009L565.312 668.131H587.696V759.647Z" fill="white"/>
<path d="M655.193 759.647H604.365V668.131H655.193V688.66H626.75V702.882H654.328V723.412H626.75V739.118H655.193V759.647Z" fill="white"/>
<path d="M192.565 841.499H168.581C167.555 834.701 164.734 832.265 159.988 832.265C155.499 832.265 151.651 835.471 151.651 839.703C151.651 845.347 156.782 847.912 167.17 852.401C188.076 861.379 193.335 868.946 193.335 881.387C193.335 899.728 180.766 910.501 160.245 910.501C139.595 910.501 126 899.728 126 879.335V877.283H150.112C150.241 885.106 154.088 890.237 160.116 890.237C165.118 890.237 169.223 886.261 169.223 881.13C169.223 873.563 158.705 870.229 150.112 866.766C134.593 860.481 127.539 852.273 127.539 839.96C127.539 823.8 143.186 812 160.629 812C166.914 812 172.429 813.411 177.431 815.976C187.563 821.234 192.437 828.802 192.565 841.499Z" fill="white"/>
<path d="M229.534 908.706H208.244V853.683H197.727V837.523H208.244V813.796H229.534V837.523H239.795V853.683H229.534V908.706Z" fill="white"/>
<path d="M314.9 908.706H294.764V901.138H294.507C291.429 907.679 285.786 911.014 276.167 911.014C261.161 911.014 248.72 902.036 248.72 881.772V837.523H270.01V877.411C270.01 886.774 273.345 891.134 281.425 891.134C289.505 891.134 293.609 885.748 293.609 877.026V837.523H314.9V908.706Z" fill="white"/>
<path d="M404.396 908.706H384.132V901.01H383.875C379.899 907.551 372.717 911.014 362.584 911.014C341.037 911.014 326.929 894.469 326.929 872.922C326.929 851.631 341.422 835.086 362.2 835.086C370.408 835.086 377.077 837.523 383.106 843.551V813.796H404.396V908.706ZM366.047 891.134C376.436 891.134 384.26 883.311 384.26 872.794C384.26 862.918 376.693 854.966 366.176 854.966C356.172 854.966 348.22 862.405 348.22 872.794C348.22 883.567 355.787 891.134 366.047 891.134Z" fill="white"/>
<path d="M441.109 829.956H419.818V813.796H441.109V829.956ZM441.109 908.706H419.818V837.523H441.109V908.706Z" fill="white"/>
<path d="M529.879 872.794C529.879 895.11 512.949 910.886 491.531 910.886C469.855 910.886 453.182 894.854 453.182 873.05C453.182 850.99 470.24 835.214 491.531 835.214C512.949 835.214 529.879 851.247 529.879 872.794ZM491.531 891.006C501.535 891.006 508.589 882.541 508.589 873.05C508.589 863.559 501.406 855.094 491.402 855.094C482.04 855.094 474.472 863.303 474.472 873.05C474.472 882.798 481.911 891.006 491.531 891.006Z" fill="white"/>
<defs>
<linearGradient id="paint0_linear_1821_9121" x1="327.52" y1="289.359" x2="327.52" y2="560.798" gradientUnits="userSpaceOnUse">
<stop offset="0.28" stop-color="#2D6CFF"/>
<stop offset="0.97" stop-color="#6AB8FF"/>
</linearGradient>
</defs>
</svg>
