<svg xmlns="http://www.w3.org/2000/svg" width="563.27" height="81.83" viewBox="0 0 563.27 81.83">
  <defs>
    <style>
      .cls-1 {
        fill-rule: evenodd;
      }
    </style>
  </defs>
  <g id="레이어_2" data-name="레이어 2">
    <g id="레이어_1-2" data-name="레이어 1">
      <path class="cls-1" d="M29.61,0a3.91,3.91,0,0,1,3.9,3.9v9.25a3.91,3.91,0,0,1-3.9,3.9H21a3.89,3.89,0,0,0-3.9,3.9v57a3.91,3.91,0,0,1-3.9,3.9H3.9A3.91,3.91,0,0,1,0,77.93V21a3.9,3.9,0,0,1,3.9-3.9h8.66a3.9,3.9,0,0,0,3.9-3.9V3.9A3.91,3.91,0,0,1,20.36,0ZM63.7,0a3.91,3.91,0,0,1,3.91,3.9v9.25a3.9,3.9,0,0,0,3.9,3.9h8.66a3.9,3.9,0,0,1,3.9,3.9v57a3.91,3.91,0,0,1-3.9,3.9H70.92a3.91,3.91,0,0,1-3.9-3.9V21a3.9,3.9,0,0,0-3.9-3.9H54.46a3.9,3.9,0,0,1-3.9-3.9V3.9A3.9,3.9,0,0,1,54.46,0Zm-17,32.63a3.91,3.91,0,0,1,3.9,3.91V61.85a3.9,3.9,0,0,1-3.9,3.9H37.41a3.9,3.9,0,0,1-3.9-3.9V36.54a3.91,3.91,0,0,1,3.9-3.91ZM176,18.59h5.32l0,51.75h9.35V9.72H176Zm-25.64-7H125V70.38h26.81c11.43,0,17.73-7.44,17.73-16.9a15.49,15.49,0,0,0-2.72-9.19,14.5,14.5,0,0,0-7.51-5.59v-.28a12.69,12.69,0,0,0,5.69-5,13.53,13.53,0,0,0,2-7.48C167,17.48,161.14,11.6,150.38,11.6Zm7.14,16c0,4.74-2.91,7.87-7,7.87H134.44V19.74h16.12C154.61,19.74,157.52,22.87,157.52,27.62Zm2.56,25.22c0,5.6-3.53,9.46-8.38,9.46H134.44V43.47H151.7C156.55,43.47,160.08,47.24,160.08,52.84Zm39.23-4.22c0-13.32,9.45-23.14,22.5-23.14s22.58,9.73,22.58,23.14S235,71.67,221.81,71.67,199.31,61.93,199.31,48.62Zm20,14.32h5c5.74,0,10.76-6.33,10.76-14.32s-5-14.43-10.76-14.43h-5c-5.73,0-10.75,6.56-10.75,14.43S213.61,62.94,219.34,62.94Zm53.09-37.46c-13,0-22,9.46-22,23.05s8.91,23.14,21.84,23.21c10.63,0,18.89-5.87,20.15-17.17h-9.08a9.5,9.5,0,0,1-2.9,6.1,8.8,8.8,0,0,1-6.1,2.44H270c-5.64,0-10.22-6.5-10.22-14.51S264.32,34.17,270,34.17h4.41c4.06,0,8,2.58,8.91,8.36h9.08C291,31.08,282.84,25.48,272.43,25.48ZM300.82,9.72h9.26V43.16h6.71l12.53-16.44H339.9L324.47,47,340.6,70.34H329.49L316,51.06h-5.92V70.34h-9.26Zm52.92,47.53h-8.9c.34,9.55,6.3,14.42,18.58,14.4,12.7,0,18.43-5,18.43-14,0-7-3.7-11.47-11.73-12.48l-9.89-1.32c-3.79-.55-5.55-2.47-5.55-5.32s1.85-5,5.82-5h5.3c4.59,0,6.09,2.66,6.53,6.43h8.9c-.34-10-6.86-14.51-17.63-14.51-11.25,0-17.55,4.77-17.55,13.59,0,6.7,3.7,11.84,12,12.85l9.8,1.32c3.79.56,5.38,2.3,5.38,5.24s-1.94,5.14-6.08,5.14H361.3C356.48,63.58,354.19,61.11,353.74,57.25Zm33.93-8.72c0-13.59,9-23,22-23,10.41,0,18.61,5.6,19.93,17.05h-9.08c-.88-5.78-4.85-8.36-8.91-8.36h-4.41c-5.65,0-10.24,6.43-10.24,14.43s4.59,14.51,10.24,14.51h4.41a8.8,8.8,0,0,0,6.1-2.44,9.5,9.5,0,0,0,2.9-6.1h9.08c-1.26,11.3-9.52,17.17-20.15,17.17C396.59,71.67,387.67,62.12,387.67,48.53Zm70.36-23c-13,0-22.48,9.82-22.48,23.14S444.88,71.67,458,71.67,480.62,62,480.62,48.62,471.09,25.48,458,25.48Zm2.57,37.46h-5c-5.73,0-10.78-6.45-10.78-14.32s5-14.43,10.76-14.43h5c5.74,0,10.78,6.44,10.78,14.43S466.34,62.94,460.6,62.94Zm27.71-8.72V26.78h9.26v25.8c0,6.33,3.08,10.1,7.14,10.1h5c4.32,0,8.2-4.13,8.2-10.1V26.78h9.28V70.39h-9v-6c-2.52,4.5-7,7.26-13.76,7.26C494.31,71.67,488.31,65.51,488.31,54.22Zm54.32-19V60.19c0,6.52,3.78,10.19,10.56,10.2h10.08V61.67h-7.41c-3,0-3.88-1.38-3.88-4.22V35.22h10.94V26.78H552V14.55h-9.35V26.78h-8.11v8.48Z"/>
    </g>
  </g>
</svg>
