<svg xmlns="http://www.w3.org/2000/svg" width="521.98" height="151.54" viewBox="0 0 521.98 151.54">
  <defs>
    <style>
      .cls-1 {
        fill: #fff;
      }
    </style>
  </defs>
  <g id="레이어_2" data-name="레이어 2">
    <g id="레이어_1-2" data-name="레이어 1">
      <g>
        <path class="cls-1" d="M236.81,94a17.83,17.83,0,0,1-.41,4h-4a16.86,16.86,0,0,1,.41,4,17.76,17.76,0,0,1-.41,4H210.14a17.76,17.76,0,0,1-.41-4,16.86,16.86,0,0,1,.41-4h18.18a17.87,17.87,0,0,1-.4-4,17.07,17.07,0,0,1,.4-4H212.16a17.7,17.7,0,0,1-.41-4,17,17,0,0,1,.41-4h-4a17.7,17.7,0,0,1-.41-4,16.92,16.92,0,0,1,.41-4h4a17.76,17.76,0,0,1-.41-4,16.92,16.92,0,0,1,.41-4h22.22a16.92,16.92,0,0,1,.41,4,17.76,17.76,0,0,1-.41,4H216.2a17,17,0,0,1,.4,4,17.75,17.75,0,0,1-.4,4h16.16a17,17,0,0,1,.41,4,17.7,17.7,0,0,1-.41,4h4A17,17,0,0,1,236.81,94Zm42.47-8.09a17.7,17.7,0,0,1-.41,4h-3a17,17,0,0,1,.41,4,17.83,17.83,0,0,1-.41,4h-5a16.86,16.86,0,0,1,.41,4,17.76,17.76,0,0,1-.41,4H254.63a17.76,17.76,0,0,1-.41-4,16.86,16.86,0,0,1,.41-4h-5a17.83,17.83,0,0,1-.41-4,17,17,0,0,1,.41-4h-3a18.33,18.33,0,0,1-.4-4,17.58,17.58,0,0,1,.4-4h3a17.7,17.7,0,0,1-.41-4,16.92,16.92,0,0,1,.41-4h5a17.76,17.76,0,0,1-.41-4,16.92,16.92,0,0,1,.41-4h16.16a16.92,16.92,0,0,1,.41,4,17.76,17.76,0,0,1-.41,4h5a16.92,16.92,0,0,1,.41,4,17.7,17.7,0,0,1-.41,4h3A17,17,0,0,1,279.28,85.87Zm-8.49,4a17.75,17.75,0,0,1-.4-4,17,17,0,0,1,.4-4h-3a17.75,17.75,0,0,1-.4-4,17,17,0,0,1,.4-4h-10.1a17,17,0,0,1,.4,4,17.75,17.75,0,0,1-.4,4h-3a17,17,0,0,1,.4,4,17.75,17.75,0,0,1-.4,4h3a17.07,17.07,0,0,1,.4,4,17.87,17.87,0,0,1-.4,4h10.1a17.87,17.87,0,0,1-.4-4,17.07,17.07,0,0,1,.4-4Zm27.72,4a17.87,17.87,0,0,1-.4,4h10.1a16.92,16.92,0,0,1,.4,4,17.81,17.81,0,0,1-.4,4H292.05a17.76,17.76,0,0,1-.41-4,16.86,16.86,0,0,1,.41-4H287a18.46,18.46,0,0,1-.4-4,17.61,17.61,0,0,1,.4-4,18.33,18.33,0,0,1-.4-4,17.58,17.58,0,0,1,.4-4,18.33,18.33,0,0,1-.4-4,17.51,17.51,0,0,1,.4-4,18.4,18.4,0,0,1-.4-4,17.51,17.51,0,0,1,.4-4h8.09a17,17,0,0,1,.4,4,17.81,17.81,0,0,1-.4,4,17,17,0,0,1,.4,4,17.75,17.75,0,0,1-.4,4,17,17,0,0,1,.4,4,17.75,17.75,0,0,1-.4,4h3A17.07,17.07,0,0,1,298.51,94Zm20.81-20.21a16.92,16.92,0,0,1,.41,4,17.7,17.7,0,0,1-.41,4,17,17,0,0,1,.41,4,17.7,17.7,0,0,1-.41,4,17,17,0,0,1,.41,4,17.83,17.83,0,0,1-.41,4,16.86,16.86,0,0,1,.41,4,17.76,17.76,0,0,1-.41,4h-8.08a17.81,17.81,0,0,1-.4-4,16.92,16.92,0,0,1,.4-4h-3a17.87,17.87,0,0,1-.4-4,17.07,17.07,0,0,1,.4-4h3a17.75,17.75,0,0,1-.4-4,17,17,0,0,1,.4-4,17.75,17.75,0,0,1-.4-4,17,17,0,0,1,.4-4,17.81,17.81,0,0,1-.4-4,17,17,0,0,1,.4-4h8.08a16.92,16.92,0,0,1,.41,4A17.76,17.76,0,0,1,319.32,73.75Zm40.45,0a16.92,16.92,0,0,1,.41,4,17.7,17.7,0,0,1-.41,4h-8.08a17.75,17.75,0,0,1-.4-4,17,17,0,0,1,.4-4h-7.07a17,17,0,0,1,.4,4,17.75,17.75,0,0,1-.4,4h-3a17,17,0,0,1,.4,4,17.75,17.75,0,0,1-.4,4,17.07,17.07,0,0,1,.4,4,17.87,17.87,0,0,1-.4,4h6.06a16.92,16.92,0,0,1,.4,4,17.81,17.81,0,0,1-.4,4h-20.2a17.76,17.76,0,0,1-.41-4,16.86,16.86,0,0,1,.41-4h6.06a17.83,17.83,0,0,1-.41-4,17,17,0,0,1,.41-4,17.7,17.7,0,0,1-.41-4,17,17,0,0,1,.41-4,17.7,17.7,0,0,1-.41-4,16.92,16.92,0,0,1,.41-4h-6.06a17.76,17.76,0,0,1-.41-4,16.92,16.92,0,0,1,.41-4h10.1a17,17,0,0,1,.4,4,17.81,17.81,0,0,1-.4,4h4a17.81,17.81,0,0,1-.4-4,17,17,0,0,1,.4-4h15.15a16.92,16.92,0,0,1,.41,4,17.76,17.76,0,0,1-.41,4Zm40.46,16.16a17.61,17.61,0,0,1,.4,4,18.46,18.46,0,0,1-.4,4h-4.05a16.86,16.86,0,0,1,.41,4,17.76,17.76,0,0,1-.41,4H376a17.76,17.76,0,0,1-.41-4,16.86,16.86,0,0,1,.41-4h-4a17.83,17.83,0,0,1-.41-4,17,17,0,0,1,.41-4h-4a17.7,17.7,0,0,1-.41-4,17,17,0,0,1,.41-4h4a17.7,17.7,0,0,1-.41-4,16.92,16.92,0,0,1,.41-4h4a17.76,17.76,0,0,1-.41-4,16.92,16.92,0,0,1,.41-4h20.2a16.92,16.92,0,0,1,.41,4,17.76,17.76,0,0,1-.41,4h4.05a17.51,17.51,0,0,1,.4,4,18.33,18.33,0,0,1-.4,4h-8.09a17.75,17.75,0,0,1-.4-4,17,17,0,0,1,.4-4H380a17,17,0,0,1,.4,4,17.75,17.75,0,0,1-.4,4h-4a17,17,0,0,1,.4,4,17.75,17.75,0,0,1-.4,4h4a17.07,17.07,0,0,1,.4,4,17.87,17.87,0,0,1-.4,4h12.12a17.87,17.87,0,0,1-.4-4,17.07,17.07,0,0,1,.4-4Zm20.24-32.32a17.86,17.86,0,0,1-.41-4.05,17,17,0,0,1,.41-4h8.08a17,17,0,0,1,.4,4,17.9,17.9,0,0,1-.4,4.05ZM436.63,98a16.86,16.86,0,0,1,.41,4,17.76,17.76,0,0,1-.41,4H412.39a17.76,17.76,0,0,1-.41-4,16.86,16.86,0,0,1,.41-4h8.08a17.83,17.83,0,0,1-.41-4,17,17,0,0,1,.41-4,17.7,17.7,0,0,1-.41-4,17,17,0,0,1,.41-4,17.7,17.7,0,0,1-.41-4,16.92,16.92,0,0,1,.41-4h-6.06a17.76,17.76,0,0,1-.41-4,16.92,16.92,0,0,1,.41-4h14.14a17,17,0,0,1,.4,4,17.81,17.81,0,0,1-.4,4,17,17,0,0,1,.4,4,17.75,17.75,0,0,1-.4,4,17,17,0,0,1,.4,4,17.75,17.75,0,0,1-.4,4,17.07,17.07,0,0,1,.4,4,17.87,17.87,0,0,1-.4,4Zm40.45-32.33a16.92,16.92,0,0,1,.41,4,17.76,17.76,0,0,1-.41,4H465a17,17,0,0,1,.4,4,17.75,17.75,0,0,1-.4,4,17,17,0,0,1,.4,4,17.75,17.75,0,0,1-.4,4,17.07,17.07,0,0,1,.4,4,17.87,17.87,0,0,1-.4,4H473a16.86,16.86,0,0,1,.41,4,17.76,17.76,0,0,1-.41,4h-20.2a17.76,17.76,0,0,1-.41-4,16.86,16.86,0,0,1,.41-4h4a17.83,17.83,0,0,1-.41-4,17,17,0,0,1,.41-4,17.7,17.7,0,0,1-.41-4,17,17,0,0,1,.41-4,17.7,17.7,0,0,1-.41-4,16.92,16.92,0,0,1,.41-4h-4a17.76,17.76,0,0,1-.41-4,16.92,16.92,0,0,1,.41-4h4a17.76,17.76,0,0,1-.41-4,16.86,16.86,0,0,1,.41-4h4a17.9,17.9,0,0,1-.4-4.05,17,17,0,0,1,.4-4h16.16a17,17,0,0,1,.41,4,17.86,17.86,0,0,1-.41,4.05H465a16.92,16.92,0,0,1,.4,4,17.81,17.81,0,0,1-.4,4Zm44.9,4a17.76,17.76,0,0,1-.41,4h-3a16.92,16.92,0,0,1,.41,4,17.7,17.7,0,0,1-.41,4h-3a17,17,0,0,1,.41,4,17.7,17.7,0,0,1-.41,4h-2a17,17,0,0,1,.41,4,17.83,17.83,0,0,1-.41,4h-3a16.92,16.92,0,0,1,.4,4,17.81,17.81,0,0,1-.4,4h-2a17,17,0,0,1,.4,4,17.75,17.75,0,0,1-.4,4h-4a17,17,0,0,1,.4,4,17.75,17.75,0,0,1-.4,4H492.28a17.7,17.7,0,0,1-.41-4,17,17,0,0,1,.41-4h8.08a17.7,17.7,0,0,1-.41-4,16.92,16.92,0,0,1,.41-4,17.76,17.76,0,0,1-.41-4,16.86,16.86,0,0,1,.41-4h-4a17.83,17.83,0,0,1-.41-4,17,17,0,0,1,.41-4h-2a17.7,17.7,0,0,1-.41-4,17,17,0,0,1,.41-4h-3a17.7,17.7,0,0,1-.41-4,16.92,16.92,0,0,1,.41-4h-3a18.4,18.4,0,0,1-.4-4,17.51,17.51,0,0,1,.4-4h8.09a17,17,0,0,1,.4,4,17.81,17.81,0,0,1-.4,4h3a17,17,0,0,1,.4,4,17.75,17.75,0,0,1-.4,4h3a17,17,0,0,1,.4,4,17.75,17.75,0,0,1-.4,4,17.07,17.07,0,0,1,.4,4,17.87,17.87,0,0,1-.4,4h3a17.87,17.87,0,0,1-.4-4,17.07,17.07,0,0,1,.4-4h2a17.75,17.75,0,0,1-.4-4,17,17,0,0,1,.4-4h3a17.75,17.75,0,0,1-.4-4,17,17,0,0,1,.4-4h3a17.81,17.81,0,0,1-.4-4,17,17,0,0,1,.4-4h8.08A16.92,16.92,0,0,1,522,69.71Z"/>
        <g>
          <path class="cls-1" d="M0,75.77A75.77,75.77,0,1,0,75.77,0,75.77,75.77,0,0,0,0,75.77Z"/>
          <path class="cls-1" d="M75.92,150.06A74.14,74.14,0,1,0,1.78,75.92,74.15,74.15,0,0,0,75.92,150.06Z"/>
          <path d="M55.39,106.47a1.68,1.68,0,0,0,1.11.46,1.62,1.62,0,0,0,1.11-.46l3.73-3.56a1.59,1.59,0,0,0,0-2.33L35.45,75.86,61.34,51.13A1.61,1.61,0,0,0,61.85,50a1.6,1.6,0,0,0-.51-1.16l-3.73-3.57a1.6,1.6,0,0,0-1.11-.46,1.58,1.58,0,0,0-1.11.46L24.53,74.69a1.59,1.59,0,0,0,0,2.33Zm61-30.61L90.5,100.58a1.57,1.57,0,0,0,0,2.33l3.73,3.56a1.65,1.65,0,0,0,1.1.46,1.62,1.62,0,0,0,1.11-.46L127.3,77a1.57,1.57,0,0,0,0-2.33L96.44,45.24a1.66,1.66,0,0,0-1.11-.46,1.54,1.54,0,0,0-1.1.46L90.5,48.81A1.57,1.57,0,0,0,90,50a1.59,1.59,0,0,0,.52,1.16Z"/>
          <path d="M55.18,72.83a3.83,3.83,0,0,0,1.13,2.81l0,0a3.8,3.8,0,0,0,5.24.16l10.51-9.35V95.15a3.84,3.84,0,1,0,7.68,0V66.45L90.28,75.8a3.84,3.84,0,0,0,5.27-.16l0,0a3.89,3.89,0,0,0,1.13-2.81,3.83,3.83,0,0,0-1.24-2.75l-17-15.6a3.8,3.8,0,0,0-5.14,0l-17,15.6A4,4,0,0,0,55.18,72.83Z"/>
        </g>
      </g>
    </g>
  </g>
</svg>
